<svg width="914" height="888" viewBox="0 0 914 888" fill="none" xmlns="http://www.w3.org/2000/svg">
<line x1="371.545" y1="689.627" x2="438.545" y2="618.627" stroke="#122D8B" stroke-width="4"/>
<line x1="440.641" y1="466.84" x2="396.219" y2="379.91" stroke="#122D8B" stroke-width="4"/>
<line x1="504.423" y1="467.005" x2="501.001" y2="376.075" stroke="#122D8B" stroke-width="4"/>
<line x1="573.154" y1="469.224" x2="608.155" y2="385.231" stroke="#122D8B" stroke-width="4"/>
<circle cx="506" cy="544" r="113" fill="#122D8B"/>
<circle cx="350.5" cy="717.5" r="51.5" fill="#D6FA00"/>
<line x1="498" y1="312.06" x2="498" y2="213.586" stroke="#F57939" stroke-width="4"/>
<circle cx="499.842" cy="188.17" r="40.5" transform="rotate(53.1885 499.842 188.17)" fill="#D6FA00"/>
<line x1="630.855" y1="314.671" x2="657.167" y2="219.778" stroke="#F57939" stroke-width="4"/>
<circle cx="665.733" cy="195.778" r="40.5" transform="rotate(68.6859 665.733 195.778)" fill="#D6FA00"/>
<line x1="357.875" y1="329.312" x2="299.743" y2="249.828" stroke="#F57939" stroke-width="4"/>
<circle cx="286.226" cy="228.225" r="40.5" transform="rotate(17.0079 286.226 228.225)" fill="#D6FA00"/>
<path d="M441.421 557V540.392H447.085C451.069 540.392 453.253 542.048 453.253 545.696C453.253 549.464 450.853 551.456 446.581 551.456H443.869V557H441.421ZM446.773 542.336H443.869V549.512H446.701C449.293 549.512 450.589 548.504 450.589 545.936C450.589 543.608 449.533 542.336 446.773 542.336ZM455.442 557V544.472H457.458L457.674 546.68H457.866C458.49 545.048 459.594 544.28 460.962 544.28C461.322 544.28 461.634 544.328 461.946 544.4V546.68C461.418 546.584 460.938 546.536 460.554 546.536C458.682 546.536 457.746 547.784 457.746 550.232V557H455.442ZM463.328 542.24V539.72H465.824V542.24H463.328ZM463.424 557V544.472H465.728V557H463.424ZM468.593 557V544.472H470.657L470.849 546.656H471.041C471.881 545.024 473.177 544.208 474.905 544.208C476.801 544.208 478.073 545.168 478.529 546.776H478.721C479.609 545.024 480.977 544.208 482.729 544.208C485.081 544.208 486.569 545.696 486.569 548.48V557H484.265V549.104C484.265 547.112 483.449 546.176 481.889 546.176C479.993 546.176 478.745 547.568 478.745 550.136V557H476.441V549.104C476.441 547.112 475.625 546.176 474.041 546.176C472.145 546.176 470.897 547.568 470.897 550.136V557H468.593ZM492.182 557.216C489.998 557.216 488.558 555.992 488.558 553.88C488.558 551.144 490.838 549.536 495.182 549.536H496.358V548.792C496.358 546.944 495.59 546.008 493.91 546.008C492.494 546.008 491.486 546.704 490.958 548.36L488.894 547.76C489.566 545.432 491.462 544.208 494.078 544.208C497.006 544.208 498.59 545.648 498.59 548.6V554.24C498.59 555.104 499.07 555.32 500.198 554.96V556.832C499.742 557.048 499.286 557.144 498.806 557.144C497.318 557.144 496.526 556.28 496.622 554.576H496.43C495.518 556.424 493.982 557.216 492.182 557.216ZM492.974 555.44C494.894 555.44 496.382 553.832 496.382 551.624V550.976H494.966C492.566 550.976 490.934 551.888 490.934 553.616C490.934 554.792 491.726 555.44 492.974 555.44ZM501.689 557V544.472H503.705L503.921 546.68H504.113C504.737 545.048 505.841 544.28 507.209 544.28C507.569 544.28 507.881 544.328 508.193 544.4V546.68C507.665 546.584 507.185 546.536 506.801 546.536C504.929 546.536 503.993 547.784 503.993 550.232V557H501.689ZM510.509 562.28C509.861 562.28 509.165 562.16 508.469 561.92V559.88C509.285 560.144 509.933 560.24 510.437 560.24C511.469 560.24 512.069 559.784 512.501 558.728L512.981 557.552L508.229 544.472H510.749L513.485 552.488L514.013 554.36H514.205L514.709 552.488L517.109 544.472H519.509L514.757 558.416C513.845 561.152 512.477 562.28 510.509 562.28ZM529.284 557.264C526.812 557.264 525.372 555.704 525.372 552.92V544.472H527.676V552.248C527.676 554.24 528.468 555.296 530.124 555.296C532.092 555.296 533.364 553.808 533.364 551.432V544.472H535.668V557H533.604L533.388 554.816L533.196 554.792C532.356 556.448 531.036 557.264 529.284 557.264ZM542.762 557.264C540.002 557.264 538.154 556.016 537.578 553.664L539.69 553.088C540.146 554.744 541.25 555.488 542.858 555.488C544.37 555.488 545.282 554.744 545.282 553.616C545.282 552.728 544.706 552.2 543.314 551.768L541.274 551.144C539.162 550.472 538.226 549.464 538.226 547.784C538.226 545.576 539.93 544.208 542.666 544.208C545.09 544.208 546.722 545.36 547.322 547.424L545.306 547.904C544.874 546.584 543.938 545.912 542.57 545.912C541.25 545.912 540.386 546.584 540.386 547.568C540.386 548.312 540.89 548.768 541.946 549.08L544.202 549.776C546.578 550.496 547.586 551.528 547.586 553.328C547.586 555.752 545.762 557.264 542.762 557.264ZM554.435 557.264C550.955 557.264 548.987 554.936 548.987 550.832C548.987 546.824 551.123 544.208 554.627 544.208C557.867 544.208 559.907 546.416 559.451 551H551.411C551.483 553.76 552.467 555.44 554.603 555.44C556.091 555.44 556.979 554.576 557.579 553.016L559.643 553.592C558.779 555.992 557.003 557.264 554.435 557.264ZM554.507 545.96C552.731 545.96 551.747 547.304 551.483 549.416H557.147C557.171 547.04 556.139 545.96 554.507 545.96ZM561.742 557V544.472H563.758L563.974 546.68H564.166C564.79 545.048 565.894 544.28 567.262 544.28C567.622 544.28 567.934 544.328 568.246 544.4V546.68C567.718 546.584 567.238 546.536 566.854 546.536C564.982 546.536 564.046 547.784 564.046 550.232V557H561.742Z" fill="#E0E6E6"/>
<circle cx="382" cy="349" r="42" fill="#F57939"/>
<path d="M382.551 364V335.3H382.151C380.801 338 378.701 339.35 375.251 339.75V334.6C378.851 334.35 380.951 332.85 382.501 329.4H387.651V364H382.551Z" fill="#E0E6E6"/>
<circle cx="502" cy="349" r="42" fill="#F57939"/>
<path d="M490.583 364V361.25L502.333 348.95C506.233 344.8 507.633 342.25 507.633 339.05C507.633 335.15 505.533 333.1 502.083 333.1C498.133 333.1 495.733 335.9 495.483 341.05L490.583 340.15C491.183 332.95 495.583 328.85 502.533 328.85C509.033 328.85 512.883 332.55 512.883 338.65C512.883 342.95 511.133 346.5 506.233 351.25L497.783 359.35H513.733V364H490.583Z" fill="#E0E6E6"/>
<circle cx="621" cy="349" r="42" fill="#F57939"/>
<path d="M620.754 364.55C613.954 364.55 609.554 361.1 608.154 354.6L613.254 353.3C614.154 357.9 616.904 360.35 621.104 360.35C625.204 360.35 627.704 358 627.704 354.2C627.704 350.1 624.904 348 619.454 348H617.604V343.75H619.404C623.804 343.75 626.404 341.6 626.404 338.1C626.404 334.9 624.304 332.9 620.804 332.9C617.004 332.9 614.554 335.3 614.154 339.8L609.304 338.95C609.954 332.5 614.404 328.85 621.154 328.85C627.554 328.85 631.404 332.05 631.404 337.15C631.404 340.85 629.404 343.55 625.654 344.8V345.2C630.454 346.15 633.054 349.2 633.054 353.8C633.054 360.25 628.204 364.55 620.754 364.55Z" fill="#E0E6E6"/>
<path d="M413.944 737V720.392H416.392V727.52H424.792V720.392H427.216V737H424.792V729.44H416.392V737H413.944ZM435.18 737.264C431.772 737.264 429.684 734.84 429.684 730.88C429.684 726.8 431.892 724.208 435.396 724.208C438.804 724.208 440.892 726.632 440.892 730.592C440.892 734.672 438.684 737.264 435.18 737.264ZM435.372 735.44C437.364 735.44 438.468 733.808 438.468 730.832C438.468 727.76 437.268 726.008 435.228 726.008C433.236 726.008 432.108 727.64 432.108 730.64C432.108 733.712 433.308 735.44 435.372 735.44ZM443.072 737V724.472H445.136L445.328 726.656H445.52C446.36 725.024 447.656 724.208 449.384 724.208C451.28 724.208 452.552 725.168 453.008 726.776H453.2C454.088 725.024 455.456 724.208 457.208 724.208C459.56 724.208 461.048 725.696 461.048 728.48V737H458.744V729.104C458.744 727.112 457.928 726.176 456.368 726.176C454.472 726.176 453.224 727.568 453.224 730.136V737H450.92V729.104C450.92 727.112 450.104 726.176 448.52 726.176C446.624 726.176 445.376 727.568 445.376 730.136V737H443.072ZM468.533 737.264C465.053 737.264 463.085 734.936 463.085 730.832C463.085 726.824 465.221 724.208 468.725 724.208C471.965 724.208 474.005 726.416 473.549 731H465.509C465.581 733.76 466.565 735.44 468.701 735.44C470.189 735.44 471.077 734.576 471.677 733.016L473.741 733.592C472.877 735.992 471.101 737.264 468.533 737.264ZM468.605 725.96C466.829 725.96 465.845 727.304 465.581 729.416H471.245C471.269 727.04 470.237 725.96 468.605 725.96ZM483.806 737.24C481.886 737.24 480.95 736.256 480.95 734.12V726.272H479.054V724.472H480.974L481.118 721.16H483.182V724.472H486.182V726.272H483.182V733.712C483.182 734.768 483.518 735.2 484.358 735.2C484.79 735.2 485.342 735.104 486.038 734.864V736.76C485.414 737.048 484.646 737.24 483.806 737.24ZM491.516 737.264C489.044 737.264 487.604 735.704 487.604 732.92V724.472H489.908V732.248C489.908 734.24 490.7 735.296 492.356 735.296C494.324 735.296 495.596 733.808 495.596 731.432V724.472H497.9V737H495.836L495.62 734.816L495.428 734.792C494.588 736.448 493.268 737.264 491.516 737.264ZM500.722 737V719.72H503.026V737H500.722ZM505.795 722.24V719.72H508.291V722.24H505.795ZM505.891 737V724.472H508.195V737H505.891ZM511.06 742.04V724.472H513.172L513.268 726.608H513.46C514.276 725.024 515.62 724.232 517.372 724.232C520.18 724.232 522.172 726.296 522.172 730.568C522.172 734.72 520.18 737.24 517.228 737.24C515.572 737.24 514.276 736.448 513.46 734.84H513.268L513.364 742.04H511.06ZM516.628 735.44C518.764 735.44 519.7 733.592 519.7 730.832C519.7 727.904 518.668 726.032 516.556 726.032C514.396 726.032 513.316 727.928 513.316 730.712C513.316 733.568 514.468 735.44 516.628 735.44ZM528.919 722.24V719.72H531.415V722.24H528.919ZM529.015 737V724.472H531.319V737H529.015ZM534.184 737V724.472H536.248L536.44 726.68H536.632C537.472 725.024 538.792 724.208 540.568 724.208C543.064 724.208 544.576 725.768 544.576 728.552V737H542.272V729.248C542.272 727.232 541.432 726.176 539.752 726.176C537.76 726.176 536.488 727.664 536.488 730.04V737H534.184ZM550.517 737.24C548.597 737.24 547.661 736.256 547.661 734.12V726.272H545.765V724.472H547.685L547.829 721.16H549.893V724.472H552.893V726.272H549.893V733.712C549.893 734.768 550.229 735.2 551.069 735.2C551.501 735.2 552.053 735.104 552.749 734.864V736.76C552.125 737.048 551.357 737.24 550.517 737.24ZM559.142 737.264C555.662 737.264 553.694 734.936 553.694 730.832C553.694 726.824 555.83 724.208 559.334 724.208C562.574 724.208 564.614 726.416 564.158 731H556.118C556.19 733.76 557.174 735.44 559.31 735.44C560.798 735.44 561.686 734.576 562.286 733.016L564.35 733.592C563.486 735.992 561.71 737.264 559.142 737.264ZM559.214 725.96C557.438 725.96 556.454 727.304 556.19 729.416H561.854C561.878 727.04 560.846 725.96 559.214 725.96ZM566.449 737V724.472H568.465L568.681 726.68H568.873C569.497 725.048 570.601 724.28 571.969 724.28C572.329 724.28 572.641 724.328 572.953 724.4V726.68C572.425 726.584 571.945 726.536 571.561 726.536C569.689 726.536 568.753 727.784 568.753 730.232V737H566.449ZM573.086 726.272V724.472H574.982V723.224C574.982 720.704 576.158 719.48 578.558 719.48C579.326 719.48 580.118 719.6 580.814 719.84V721.784C579.974 721.544 579.398 721.424 578.822 721.424C577.694 721.424 577.286 721.904 577.286 723.2V724.472H580.502V726.272H577.286V737H574.982V726.272H573.086ZM584.402 737.216C582.218 737.216 580.778 735.992 580.778 733.88C580.778 731.144 583.058 729.536 587.402 729.536H588.578V728.792C588.578 726.944 587.81 726.008 586.13 726.008C584.714 726.008 583.706 726.704 583.178 728.36L581.114 727.76C581.786 725.432 583.682 724.208 586.298 724.208C589.226 724.208 590.81 725.648 590.81 728.6V734.24C590.81 735.104 591.29 735.32 592.418 734.96V736.832C591.962 737.048 591.506 737.144 591.026 737.144C589.538 737.144 588.746 736.28 588.842 734.576H588.65C587.738 736.424 586.202 737.216 584.402 737.216ZM585.194 735.44C587.114 735.44 588.602 733.832 588.602 731.624V730.976H587.186C584.786 730.976 583.154 731.888 583.154 733.616C583.154 734.792 583.946 735.44 585.194 735.44ZM598.616 737.264C595.184 737.264 593.12 734.984 593.12 730.928C593.12 726.776 595.208 724.208 598.76 724.208C601.448 724.208 603.272 725.696 603.728 728.48L601.592 728.96C601.184 726.92 600.2 725.984 598.64 725.984C596.624 725.984 595.568 727.616 595.568 730.64C595.568 733.808 596.672 735.392 598.736 735.392C600.248 735.392 601.208 734.504 601.76 732.68L603.92 733.232C603.032 735.944 601.256 737.264 598.616 737.264ZM610.557 737.264C607.077 737.264 605.109 734.936 605.109 730.832C605.109 726.824 607.245 724.208 610.749 724.208C613.989 724.208 616.029 726.416 615.573 731H607.533C607.605 733.76 608.589 735.44 610.725 735.44C612.213 735.44 613.101 734.576 613.701 733.016L615.765 733.592C614.901 735.992 613.125 737.264 610.557 737.264ZM610.629 725.96C608.853 725.96 607.869 727.304 607.605 729.416H613.269C613.293 727.04 612.261 725.96 610.629 725.96Z" fill="black"/>
<path d="M749.944 624V607.392H753.184L761.368 621.144H761.56V607.392H763.816V624H760.528L752.368 610.296H752.176V624H749.944ZM771.766 624.264C768.358 624.264 766.27 621.84 766.27 617.88C766.27 613.8 768.478 611.208 771.982 611.208C775.39 611.208 777.478 613.632 777.478 617.592C777.478 621.672 775.27 624.264 771.766 624.264ZM771.958 622.44C773.95 622.44 775.054 620.808 775.054 617.832C775.054 614.76 773.854 613.008 771.814 613.008C769.822 613.008 768.694 614.64 768.694 617.64C768.694 620.712 769.894 622.44 771.958 622.44ZM782.877 624.24C780.957 624.24 780.021 623.256 780.021 621.12V613.272H778.125V611.472H780.045L780.189 608.16H782.253V611.472H785.253V613.272H782.253V620.712C782.253 621.768 782.589 622.2 783.429 622.2C783.861 622.2 784.413 622.104 785.109 621.864V623.76C784.485 624.048 783.717 624.24 782.877 624.24ZM794.902 624.24C792.982 624.24 792.046 623.256 792.046 621.12V613.272H790.15V611.472H792.07L792.214 608.16H794.278V611.472H797.278V613.272H794.278V620.712C794.278 621.768 794.614 622.2 795.454 622.2C795.886 622.2 796.438 622.104 797.134 621.864V623.76C796.51 624.048 795.742 624.24 794.902 624.24ZM803.527 624.264C800.047 624.264 798.079 621.936 798.079 617.832C798.079 613.824 800.215 611.208 803.719 611.208C806.959 611.208 808.999 613.416 808.543 618H800.503C800.575 620.76 801.559 622.44 803.695 622.44C805.183 622.44 806.071 621.576 806.671 620.016L808.735 620.592C807.871 622.992 806.095 624.264 803.527 624.264ZM803.599 612.96C801.823 612.96 800.839 614.304 800.575 616.416H806.239C806.263 614.04 805.231 612.96 803.599 612.96ZM815.658 624.264C812.226 624.264 810.162 621.984 810.162 617.928C810.162 613.776 812.25 611.208 815.802 611.208C818.49 611.208 820.314 612.696 820.77 615.48L818.634 615.96C818.226 613.92 817.242 612.984 815.682 612.984C813.666 612.984 812.61 614.616 812.61 617.64C812.61 620.808 813.714 622.392 815.778 622.392C817.29 622.392 818.25 621.504 818.802 619.68L820.962 620.232C820.074 622.944 818.298 624.264 815.658 624.264ZM822.823 624V606.72H825.127L825.031 613.68H825.223C826.111 612.024 827.431 611.208 829.207 611.208C831.703 611.208 833.215 612.768 833.215 615.552V624H830.911V616.248C830.911 614.232 830.071 613.176 828.367 613.176C826.423 613.176 825.127 614.568 825.127 616.968V624H822.823ZM844.84 624.264C842.08 624.264 840.232 623.016 839.656 620.664L841.768 620.088C842.224 621.744 843.328 622.488 844.936 622.488C846.448 622.488 847.36 621.744 847.36 620.616C847.36 619.728 846.784 619.2 845.392 618.768L843.352 618.144C841.24 617.472 840.304 616.464 840.304 614.784C840.304 612.576 842.008 611.208 844.744 611.208C847.168 611.208 848.8 612.36 849.4 614.424L847.384 614.904C846.952 613.584 846.016 612.912 844.648 612.912C843.328 612.912 842.464 613.584 842.464 614.568C842.464 615.312 842.968 615.768 844.024 616.08L846.28 616.776C848.656 617.496 849.664 618.528 849.664 620.328C849.664 622.752 847.84 624.264 844.84 624.264ZM854.641 624.216C852.457 624.216 851.017 622.992 851.017 620.88C851.017 618.144 853.297 616.536 857.641 616.536H858.817V615.792C858.817 613.944 858.049 613.008 856.369 613.008C854.953 613.008 853.945 613.704 853.417 615.36L851.353 614.76C852.025 612.432 853.921 611.208 856.537 611.208C859.465 611.208 861.049 612.648 861.049 615.6V621.24C861.049 622.104 861.529 622.32 862.657 621.96V623.832C862.201 624.048 861.745 624.144 861.265 624.144C859.777 624.144 858.985 623.28 859.081 621.576H858.889C857.977 623.424 856.441 624.216 854.641 624.216ZM855.433 622.44C857.353 622.44 858.841 620.832 858.841 618.624V617.976H857.425C855.025 617.976 853.393 618.888 853.393 620.616C853.393 621.792 854.185 622.44 855.433 622.44ZM866.416 624L862.144 611.472H864.64L867.736 621.456H867.928L870.952 611.472H873.328L869.008 624H866.416ZM877.398 624L873.126 611.472H875.622L878.718 621.456H878.91L881.934 611.472H884.31L879.99 624H877.398ZM886.34 629.28C885.692 629.28 884.996 629.16 884.3 628.92V626.88C885.116 627.144 885.764 627.24 886.268 627.24C887.3 627.24 887.9 626.784 888.332 625.728L888.812 624.552L884.06 611.472H886.58L889.316 619.488L889.844 621.36H890.036L890.54 619.488L892.94 611.472H895.34L890.588 625.416C889.676 628.152 888.308 629.28 886.34 629.28Z" fill="black"/>
<path d="M689.8 698.264C685.816 698.264 683.2 695.384 683.2 689.864C683.2 684.536 686.056 681.128 690.736 681.128C694.192 681.128 696.592 683.024 697.264 686.336L694.816 686.936C694.24 684.464 692.8 683.096 690.52 683.096C687.616 683.096 685.864 685.4 685.864 689.576C685.864 693.584 687.352 696.2 690.424 696.2C692.464 696.2 694.744 695.048 695.104 691.352H690.496V689.456H697.336V698H695.536L695.176 695.456H694.984C693.904 697.352 692.032 698.264 689.8 698.264ZM700.239 698V685.472H702.255L702.471 687.68H702.663C703.287 686.048 704.391 685.28 705.759 685.28C706.119 685.28 706.431 685.328 706.743 685.4V687.68C706.215 687.584 705.735 687.536 705.351 687.536C703.479 687.536 702.543 688.784 702.543 691.232V698H700.239ZM710.515 698.216C708.331 698.216 706.891 696.992 706.891 694.88C706.891 692.144 709.171 690.536 713.515 690.536H714.691V689.792C714.691 687.944 713.923 687.008 712.243 687.008C710.827 687.008 709.819 687.704 709.291 689.36L707.227 688.76C707.899 686.432 709.795 685.208 712.411 685.208C715.339 685.208 716.923 686.648 716.923 689.6V695.24C716.923 696.104 717.403 696.32 718.531 695.96V697.832C718.075 698.048 717.619 698.144 717.139 698.144C715.651 698.144 714.859 697.28 714.955 695.576H714.763C713.851 697.424 712.315 698.216 710.515 698.216ZM711.307 696.44C713.227 696.44 714.715 694.832 714.715 692.624V691.976H713.299C710.899 691.976 709.267 692.888 709.267 694.616C709.267 695.792 710.059 696.44 711.307 696.44ZM720.022 698V685.472H722.086L722.278 687.68H722.47C723.31 686.024 724.63 685.208 726.406 685.208C728.902 685.208 730.414 686.768 730.414 689.552V698H728.11V690.248C728.11 688.232 727.27 687.176 725.59 687.176C723.598 687.176 722.326 688.664 722.326 691.04V698H720.022ZM733.137 698V685.472H735.201L735.393 687.68H735.585C736.425 686.024 737.745 685.208 739.521 685.208C742.017 685.208 743.529 686.768 743.529 689.552V698H741.225V690.248C741.225 688.232 740.385 687.176 738.705 687.176C736.713 687.176 735.441 688.664 735.441 691.04V698H733.137ZM746.738 703.28C746.09 703.28 745.394 703.16 744.698 702.92V700.88C745.514 701.144 746.162 701.24 746.666 701.24C747.698 701.24 748.298 700.784 748.73 699.728L749.21 698.552L744.458 685.472H746.978L749.714 693.488L750.242 695.36H750.434L750.938 693.488L753.338 685.472H755.738L750.986 699.416C750.074 702.152 748.706 703.28 746.738 703.28ZM761.745 703.04V685.472H763.857L763.953 687.608H764.145C764.961 686.024 766.305 685.232 768.057 685.232C770.865 685.232 772.857 687.296 772.857 691.568C772.857 695.72 770.865 698.24 767.913 698.24C766.257 698.24 764.961 697.448 764.145 695.84H763.953L764.049 703.04H761.745ZM767.313 696.44C769.449 696.44 770.385 694.592 770.385 691.832C770.385 688.904 769.353 687.032 767.241 687.032C765.081 687.032 764.001 688.928 764.001 691.712C764.001 694.568 765.153 696.44 767.313 696.44ZM775.07 698V685.472H777.086L777.302 687.68H777.494C778.118 686.048 779.222 685.28 780.59 685.28C780.95 685.28 781.262 685.328 781.574 685.4V687.68C781.046 687.584 780.566 687.536 780.182 687.536C778.31 687.536 777.374 688.784 777.374 691.232V698H775.07ZM787.267 698.264C783.859 698.264 781.771 695.84 781.771 691.88C781.771 687.8 783.979 685.208 787.483 685.208C790.891 685.208 792.979 687.632 792.979 691.592C792.979 695.672 790.771 698.264 787.267 698.264ZM787.459 696.44C789.451 696.44 790.555 694.808 790.555 691.832C790.555 688.76 789.355 687.008 787.315 687.008C785.323 687.008 784.195 688.64 784.195 691.64C784.195 694.712 785.395 696.44 787.459 696.44ZM799.983 698.264C796.575 698.264 794.487 695.84 794.487 691.88C794.487 687.8 796.695 685.208 800.199 685.208C803.607 685.208 805.695 687.632 805.695 691.592C805.695 695.672 803.487 698.264 799.983 698.264ZM800.175 696.44C802.167 696.44 803.271 694.808 803.271 691.832C803.271 688.76 802.071 687.008 800.031 687.008C798.039 687.008 796.911 688.64 796.911 691.64C796.911 694.712 798.111 696.44 800.175 696.44ZM806.413 687.272V685.472H808.309V684.224C808.309 681.704 809.485 680.48 811.885 680.48C812.653 680.48 813.445 680.6 814.141 680.84V682.784C813.301 682.544 812.725 682.424 812.149 682.424C811.021 682.424 810.613 682.904 810.613 684.2V685.472H813.829V687.272H810.613V698H808.309V687.272H806.413ZM819.616 683.24V680.72H822.112V683.24H819.616ZM819.712 698V685.472H822.016V698H819.712ZM824.881 698V685.472H826.945L827.137 687.68H827.329C828.169 686.024 829.489 685.208 831.265 685.208C833.761 685.208 835.273 686.768 835.273 689.552V698H832.969V690.248C832.969 688.232 832.129 687.176 830.449 687.176C828.457 687.176 827.185 688.664 827.185 691.04V698H824.881ZM841.215 698.24C839.295 698.24 838.359 697.256 838.359 695.12V687.272H836.463V685.472H838.383L838.527 682.16H840.591V685.472H843.591V687.272H840.591V694.712C840.591 695.768 840.927 696.2 841.767 696.2C842.199 696.2 842.751 696.104 843.447 695.864V697.76C842.823 698.048 842.055 698.24 841.215 698.24ZM849.839 698.264C846.359 698.264 844.391 695.936 844.391 691.832C844.391 687.824 846.527 685.208 850.031 685.208C853.271 685.208 855.311 687.416 854.855 692H846.815C846.887 694.76 847.871 696.44 850.007 696.44C851.495 696.44 852.383 695.576 852.983 694.016L855.047 694.592C854.183 696.992 852.407 698.264 849.839 698.264ZM849.911 686.96C848.135 686.96 847.151 688.304 846.887 690.416H852.551C852.575 688.04 851.543 686.96 849.911 686.96ZM857.146 698V685.472H859.162L859.378 687.68H859.57C860.194 686.048 861.298 685.28 862.666 685.28C863.026 685.28 863.338 685.328 863.65 685.4V687.68C863.122 687.584 862.642 687.536 862.258 687.536C860.386 687.536 859.45 688.784 859.45 691.232V698H857.146ZM863.784 687.272V685.472H865.68V684.224C865.68 681.704 866.856 680.48 869.256 680.48C870.024 680.48 870.816 680.6 871.512 680.84V682.784C870.672 682.544 870.096 682.424 869.52 682.424C868.392 682.424 867.984 682.904 867.984 684.2V685.472H871.2V687.272H867.984V698H865.68V687.272H863.784ZM875.099 698.216C872.915 698.216 871.475 696.992 871.475 694.88C871.475 692.144 873.755 690.536 878.099 690.536H879.275V689.792C879.275 687.944 878.507 687.008 876.827 687.008C875.411 687.008 874.403 687.704 873.875 689.36L871.811 688.76C872.483 686.432 874.379 685.208 876.995 685.208C879.923 685.208 881.507 686.648 881.507 689.6V695.24C881.507 696.104 881.987 696.32 883.115 695.96V697.832C882.659 698.048 882.203 698.144 881.723 698.144C880.235 698.144 879.443 697.28 879.539 695.576H879.347C878.435 697.424 876.899 698.216 875.099 698.216ZM875.891 696.44C877.811 696.44 879.299 694.832 879.299 692.624V691.976H877.883C875.483 691.976 873.851 692.888 873.851 694.616C873.851 695.792 874.643 696.44 875.891 696.44ZM889.313 698.264C885.881 698.264 883.817 695.984 883.817 691.928C883.817 687.776 885.905 685.208 889.457 685.208C892.145 685.208 893.969 686.696 894.425 689.48L892.289 689.96C891.881 687.92 890.897 686.984 889.337 686.984C887.321 686.984 886.265 688.616 886.265 691.64C886.265 694.808 887.369 696.392 889.433 696.392C890.945 696.392 891.905 695.504 892.457 693.68L894.617 694.232C893.729 696.944 891.953 698.264 889.313 698.264ZM901.254 698.264C897.774 698.264 895.806 695.936 895.806 691.832C895.806 687.824 897.942 685.208 901.446 685.208C904.686 685.208 906.726 687.416 906.27 692H898.23C898.302 694.76 899.286 696.44 901.422 696.44C902.91 696.44 903.798 695.576 904.398 694.016L906.462 694.592C905.598 696.992 903.822 698.264 901.254 698.264ZM901.326 686.96C899.55 686.96 898.566 688.304 898.302 690.416H903.966C903.99 688.04 902.958 686.96 901.326 686.96ZM909.114 692.912L908.85 681.392H911.49L911.226 692.912H909.114ZM908.73 698V694.952H911.61V698H908.73Z" fill="black"/>
<path d="M302.944 855V838.392H305.392V845.52H313.792V838.392H316.216V855H313.792V847.44H305.392V855H302.944ZM324.18 855.264C320.772 855.264 318.684 852.84 318.684 848.88C318.684 844.8 320.892 842.208 324.396 842.208C327.804 842.208 329.892 844.632 329.892 848.592C329.892 852.672 327.684 855.264 324.18 855.264ZM324.372 853.44C326.364 853.44 327.468 851.808 327.468 848.832C327.468 845.76 326.268 844.008 324.228 844.008C322.236 844.008 321.108 845.64 321.108 848.64C321.108 851.712 322.308 853.44 324.372 853.44ZM332.072 855V842.472H334.136L334.328 844.656H334.52C335.36 843.024 336.656 842.208 338.384 842.208C340.28 842.208 341.552 843.168 342.008 844.776H342.2C343.088 843.024 344.456 842.208 346.208 842.208C348.56 842.208 350.048 843.696 350.048 846.48V855H347.744V847.104C347.744 845.112 346.928 844.176 345.368 844.176C343.472 844.176 342.224 845.568 342.224 848.136V855H339.92V847.104C339.92 845.112 339.104 844.176 337.52 844.176C335.624 844.176 334.376 845.568 334.376 848.136V855H332.072ZM357.533 855.264C354.053 855.264 352.085 852.936 352.085 848.832C352.085 844.824 354.221 842.208 357.725 842.208C360.965 842.208 363.005 844.416 362.549 849H354.509C354.581 851.76 355.565 853.44 357.701 853.44C359.189 853.44 360.077 852.576 360.677 851.016L362.741 851.592C361.877 853.992 360.101 855.264 357.533 855.264ZM357.605 843.96C355.829 843.96 354.845 845.304 354.581 847.416H360.245C360.269 845.04 359.237 843.96 357.605 843.96ZM372.806 855.24C370.886 855.24 369.95 854.256 369.95 852.12V844.272H368.054V842.472H369.974L370.118 839.16H372.182V842.472H375.182V844.272H372.182V851.712C372.182 852.768 372.518 853.2 373.358 853.2C373.79 853.2 374.342 853.104 375.038 852.864V854.76C374.414 855.048 373.646 855.24 372.806 855.24ZM380.516 855.264C378.044 855.264 376.604 853.704 376.604 850.92V842.472H378.908V850.248C378.908 852.24 379.7 853.296 381.356 853.296C383.324 853.296 384.596 851.808 384.596 849.432V842.472H386.9V855H384.836L384.62 852.816L384.428 852.792C383.588 854.448 382.268 855.264 380.516 855.264ZM389.722 855V837.72H392.026V855H389.722ZM394.795 840.24V837.72H397.291V840.24H394.795ZM394.891 855V842.472H397.195V855H394.891ZM400.06 860.04V842.472H402.172L402.268 844.608H402.46C403.276 843.024 404.62 842.232 406.372 842.232C409.18 842.232 411.172 844.296 411.172 848.568C411.172 852.72 409.18 855.24 406.228 855.24C404.572 855.24 403.276 854.448 402.46 852.84H402.268L402.364 860.04H400.06ZM405.628 853.44C407.764 853.44 408.7 851.592 408.7 848.832C408.7 845.904 407.668 844.032 405.556 844.032C403.396 844.032 402.316 845.928 402.316 848.712C402.316 851.568 403.468 853.44 405.628 853.44ZM426.797 855.24C423.989 855.24 421.997 853.176 421.997 848.928C421.997 844.776 423.989 842.232 426.941 842.232C428.597 842.232 429.893 843.024 430.709 844.608H430.901L430.805 837.72H433.109V855H430.997L430.901 852.84H430.709C429.893 854.448 428.549 855.24 426.797 855.24ZM427.613 853.44C429.749 853.44 430.853 851.544 430.853 848.76C430.853 845.904 429.701 844.032 427.541 844.032C425.405 844.032 424.445 845.88 424.445 848.64C424.445 851.568 425.501 853.44 427.613 853.44ZM440.746 855.264C437.266 855.264 435.298 852.936 435.298 848.832C435.298 844.824 437.434 842.208 440.938 842.208C444.178 842.208 446.218 844.416 445.762 849H437.722C437.794 851.76 438.778 853.44 440.914 853.44C442.402 853.44 443.29 852.576 443.89 851.016L445.954 851.592C445.09 853.992 443.314 855.264 440.746 855.264ZM440.818 843.96C439.042 843.96 438.058 845.304 437.794 847.416H443.458C443.482 845.04 442.45 843.96 440.818 843.96ZM450.579 855L446.307 842.472H448.803L451.899 852.456H452.091L455.115 842.472H457.491L453.171 855H450.579ZM458.775 840.24V837.72H461.271V840.24H458.775ZM458.871 855V842.472H461.175V855H458.871ZM468.864 855.264C465.432 855.264 463.368 852.984 463.368 848.928C463.368 844.776 465.456 842.208 469.008 842.208C471.696 842.208 473.52 843.696 473.976 846.48L471.84 846.96C471.432 844.92 470.448 843.984 468.888 843.984C466.872 843.984 465.816 845.616 465.816 848.64C465.816 851.808 466.92 853.392 468.984 853.392C470.496 853.392 471.456 852.504 472.008 850.68L474.168 851.232C473.28 853.944 471.504 855.264 468.864 855.264ZM480.805 855.264C477.325 855.264 475.357 852.936 475.357 848.832C475.357 844.824 477.493 842.208 480.997 842.208C484.237 842.208 486.277 844.416 485.821 849H477.781C477.853 851.76 478.837 853.44 480.973 853.44C482.461 853.44 483.349 852.576 483.949 851.016L486.013 851.592C485.149 853.992 483.373 855.264 480.805 855.264ZM480.877 843.96C479.101 843.96 478.117 845.304 477.853 847.416H483.517C483.541 845.04 482.509 843.96 480.877 843.96ZM492.646 840.24V837.72H495.142V840.24H492.646ZM492.742 855V842.472H495.046V855H492.742ZM497.911 855V842.472H499.975L500.167 844.68H500.359C501.199 843.024 502.519 842.208 504.295 842.208C506.791 842.208 508.303 843.768 508.303 846.552V855H505.999V847.248C505.999 845.232 505.159 844.176 503.479 844.176C501.487 844.176 500.215 845.664 500.215 848.04V855H497.911ZM514.244 855.24C512.324 855.24 511.388 854.256 511.388 852.12V844.272H509.492V842.472H511.412L511.556 839.16H513.62V842.472H516.62V844.272H513.62V851.712C513.62 852.768 513.956 853.2 514.796 853.2C515.228 853.2 515.78 853.104 516.476 852.864V854.76C515.852 855.048 515.084 855.24 514.244 855.24ZM522.869 855.264C519.389 855.264 517.421 852.936 517.421 848.832C517.421 844.824 519.557 842.208 523.061 842.208C526.301 842.208 528.341 844.416 527.885 849H519.845C519.917 851.76 520.901 853.44 523.037 853.44C524.525 853.44 525.413 852.576 526.013 851.016L528.077 851.592C527.213 853.992 525.437 855.264 522.869 855.264ZM522.941 843.96C521.165 843.96 520.181 845.304 519.917 847.416H525.581C525.605 845.04 524.573 843.96 522.941 843.96ZM530.176 855V842.472H532.192L532.408 844.68H532.6C533.224 843.048 534.328 842.28 535.696 842.28C536.056 842.28 536.368 842.328 536.68 842.4V844.68C536.152 844.584 535.672 844.536 535.288 844.536C533.416 844.536 532.48 845.784 532.48 848.232V855H530.176ZM540.452 855.216C538.268 855.216 536.828 853.992 536.828 851.88C536.828 849.144 539.108 847.536 543.452 847.536H544.628V846.792C544.628 844.944 543.86 844.008 542.18 844.008C540.764 844.008 539.756 844.704 539.228 846.36L537.164 845.76C537.836 843.432 539.732 842.208 542.348 842.208C545.276 842.208 546.86 843.648 546.86 846.6V852.24C546.86 853.104 547.34 853.32 548.468 852.96V854.832C548.012 855.048 547.556 855.144 547.076 855.144C545.588 855.144 544.796 854.28 544.892 852.576H544.7C543.788 854.424 542.252 855.216 540.452 855.216ZM541.244 853.44C543.164 853.44 544.652 851.832 544.652 849.624V848.976H543.236C540.836 848.976 539.204 849.888 539.204 851.616C539.204 852.792 539.996 853.44 541.244 853.44ZM554.666 855.264C551.234 855.264 549.17 852.984 549.17 848.928C549.17 844.776 551.258 842.208 554.81 842.208C557.498 842.208 559.322 843.696 559.778 846.48L557.642 846.96C557.234 844.92 556.25 843.984 554.69 843.984C552.674 843.984 551.618 845.616 551.618 848.64C551.618 851.808 552.722 853.392 554.786 853.392C556.298 853.392 557.258 852.504 557.81 850.68L559.97 851.232C559.082 853.944 557.306 855.264 554.666 855.264ZM565.167 855.24C563.247 855.24 562.311 854.256 562.311 852.12V844.272H560.415V842.472H562.335L562.479 839.16H564.543V842.472H567.543V844.272H564.543V851.712C564.543 852.768 564.879 853.2 565.719 853.2C566.151 853.2 566.703 853.104 567.399 852.864V854.76C566.775 855.048 566.007 855.24 565.167 855.24ZM569.131 840.24V837.72H571.627V840.24H569.131ZM569.227 855V842.472H571.531V855H569.227ZM579.22 855.264C575.812 855.264 573.724 852.84 573.724 848.88C573.724 844.8 575.932 842.208 579.436 842.208C582.844 842.208 584.932 844.632 584.932 848.592C584.932 852.672 582.724 855.264 579.22 855.264ZM579.412 853.44C581.404 853.44 582.508 851.808 582.508 848.832C582.508 845.76 581.308 844.008 579.268 844.008C577.276 844.008 576.148 845.64 576.148 848.64C576.148 851.712 577.348 853.44 579.412 853.44ZM587.112 855V842.472H589.176L589.368 844.68H589.56C590.4 843.024 591.72 842.208 593.496 842.208C595.992 842.208 597.504 843.768 597.504 846.552V855H595.2V847.248C595.2 845.232 594.36 844.176 592.68 844.176C590.688 844.176 589.416 845.664 589.416 848.04V855H587.112Z" fill="black"/>
<path d="M41.56 197.24V194.72H44.056V197.24H41.56ZM41.656 212V199.472H43.96V212H41.656ZM47.113 212V195.392H52.777C56.761 195.392 58.945 197.048 58.945 200.696C58.945 204.464 56.545 206.456 52.273 206.456H49.561V212H47.113ZM52.465 197.336H49.561V204.512H52.393C54.985 204.512 56.281 203.504 56.281 200.936C56.281 198.608 55.225 197.336 52.465 197.336ZM63.9214 212.216C61.7374 212.216 60.2974 210.992 60.2974 208.88C60.2974 206.144 62.5774 204.536 66.9214 204.536H68.0974V203.792C68.0974 201.944 67.3294 201.008 65.6494 201.008C64.2334 201.008 63.2254 201.704 62.6974 203.36L60.6334 202.76C61.3054 200.432 63.2014 199.208 65.8174 199.208C68.7454 199.208 70.3294 200.648 70.3294 203.6V209.24C70.3294 210.104 70.8094 210.32 71.9374 209.96V211.832C71.4814 212.048 71.0254 212.144 70.5454 212.144C69.0574 212.144 68.2654 211.28 68.3614 209.576H68.1694C67.2574 211.424 65.7214 212.216 63.9214 212.216ZM64.7134 210.44C66.6334 210.44 68.1214 208.832 68.1214 206.624V205.976H66.7054C64.3054 205.976 62.6734 206.888 62.6734 208.616C62.6734 209.792 63.4654 210.44 64.7134 210.44ZM77.4634 212.24C74.6554 212.24 72.6634 210.176 72.6634 205.928C72.6634 201.776 74.6554 199.232 77.6074 199.232C79.2634 199.232 80.5594 200.024 81.3754 201.608H81.5674L81.4714 194.72H83.7754V212H81.6634L81.5674 209.84H81.3754C80.5594 211.448 79.2154 212.24 77.4634 212.24ZM78.2794 210.44C80.4154 210.44 81.5194 208.544 81.5194 205.76C81.5194 202.904 80.3674 201.032 78.2074 201.032C76.0714 201.032 75.1114 202.88 75.1114 205.64C75.1114 208.568 76.1674 210.44 78.2794 210.44ZM96.0906 212.264C92.6586 212.264 90.5946 209.984 90.5946 205.928C90.5946 201.776 92.6826 199.208 96.2346 199.208C98.9226 199.208 100.747 200.696 101.203 203.48L99.0666 203.96C98.6586 201.92 97.6746 200.984 96.1146 200.984C94.0986 200.984 93.0426 202.616 93.0426 205.64C93.0426 208.808 94.1466 210.392 96.2106 210.392C97.7226 210.392 98.6826 209.504 99.2346 207.68L101.395 208.232C100.507 210.944 98.7306 212.264 96.0906 212.264ZM103.16 197.24V194.72H105.656V197.24H103.16ZM103.256 212V199.472H105.56V212H103.256ZM111.761 212.24C109.841 212.24 108.905 211.256 108.905 209.12V201.272H107.009V199.472H108.929L109.073 196.16H111.137V199.472H114.137V201.272H111.137V208.712C111.137 209.768 111.473 210.2 112.313 210.2C112.745 210.2 113.297 210.104 113.993 209.864V211.76C113.369 212.048 112.601 212.24 111.761 212.24ZM116.448 217.28C115.8 217.28 115.104 217.16 114.408 216.92V214.88C115.224 215.144 115.872 215.24 116.376 215.24C117.408 215.24 118.008 214.784 118.44 213.728L118.92 212.552L114.168 199.472H116.688L119.424 207.488L119.952 209.36H120.144L120.648 207.488L123.048 199.472H125.448L120.696 213.416C119.784 216.152 118.416 217.28 116.448 217.28ZM130.111 201.272V199.472H132.007V198.224C132.007 195.704 133.183 194.48 135.583 194.48C136.351 194.48 137.143 194.6 137.839 194.84V196.784C136.999 196.544 136.423 196.424 135.847 196.424C134.719 196.424 134.311 196.904 134.311 198.2V199.472H137.527V201.272H134.311V212H132.007V201.272H130.111ZM138.781 212V194.72H141.085V212H138.781ZM148.774 212.264C145.366 212.264 143.278 209.84 143.278 205.88C143.278 201.8 145.486 199.208 148.99 199.208C152.398 199.208 154.486 201.632 154.486 205.592C154.486 209.672 152.278 212.264 148.774 212.264ZM148.966 210.44C150.958 210.44 152.062 208.808 152.062 205.832C152.062 202.76 150.862 201.008 148.822 201.008C146.83 201.008 145.702 202.64 145.702 205.64C145.702 208.712 146.902 210.44 148.966 210.44ZM158.564 212L155.276 199.472H157.748L159.98 209.576H160.172L162.692 199.472H165.068L167.54 209.528H167.732L169.988 199.472H172.316L168.932 212H166.244L163.844 202.376H163.652L161.252 212H158.564ZM178.564 212.264C175.084 212.264 173.116 209.936 173.116 205.832C173.116 201.824 175.252 199.208 178.756 199.208C181.996 199.208 184.036 201.416 183.58 206H175.54C175.612 208.76 176.596 210.44 178.732 210.44C180.22 210.44 181.108 209.576 181.708 208.016L183.772 208.592C182.908 210.992 181.132 212.264 178.564 212.264ZM178.636 200.96C176.86 200.96 175.876 202.304 175.612 204.416H181.276C181.3 202.04 180.268 200.96 178.636 200.96ZM185.871 212V199.472H187.887L188.103 201.68H188.295C188.919 200.048 190.023 199.28 191.391 199.28C191.751 199.28 192.063 199.328 192.375 199.4V201.68C191.847 201.584 191.367 201.536 190.983 201.536C189.111 201.536 188.175 202.784 188.175 205.232V212H185.871ZM200.02 212.24C198.364 212.24 197.068 211.448 196.252 209.84H196.06L195.964 212H193.852V194.72H196.156L196.06 201.608H196.252C197.068 200.024 198.412 199.232 200.164 199.232C202.972 199.232 204.964 201.296 204.964 205.568C204.964 209.72 202.972 212.24 200.02 212.24ZM199.42 210.44C201.556 210.44 202.492 208.592 202.492 205.832C202.492 202.904 201.46 201.032 199.348 201.032C197.188 201.032 196.108 202.928 196.108 205.712C196.108 208.568 197.26 210.44 199.42 210.44ZM211.953 212.264C208.473 212.264 206.505 209.936 206.505 205.832C206.505 201.824 208.641 199.208 212.145 199.208C215.385 199.208 217.425 201.416 216.969 206H208.929C209.001 208.76 209.985 210.44 212.121 210.44C213.609 210.44 214.497 209.576 215.097 208.016L217.161 208.592C216.297 210.992 214.521 212.264 211.953 212.264ZM212.025 200.96C210.249 200.96 209.265 202.304 209.001 204.416H214.665C214.689 202.04 213.657 200.96 212.025 200.96ZM223.413 212.24C220.605 212.24 218.613 210.176 218.613 205.928C218.613 201.776 220.605 199.232 223.557 199.232C225.213 199.232 226.509 200.024 227.325 201.608H227.517L227.421 194.72H229.725V212H227.613L227.517 209.84H227.325C226.509 211.448 225.165 212.24 223.413 212.24ZM224.229 210.44C226.365 210.44 227.469 208.544 227.469 205.76C227.469 202.904 226.317 201.032 224.157 201.032C222.021 201.032 221.061 202.88 221.061 205.64C221.061 208.568 222.117 210.44 224.229 210.44Z" fill="black"/>
<path d="M437.656 125V112.472H439.72L439.912 114.656H440.104C440.944 113.024 442.24 112.208 443.968 112.208C445.864 112.208 447.136 113.168 447.592 114.776H447.784C448.672 113.024 450.04 112.208 451.792 112.208C454.144 112.208 455.632 113.696 455.632 116.48V125H453.328V117.104C453.328 115.112 452.512 114.176 450.952 114.176C449.056 114.176 447.808 115.568 447.808 118.136V125H445.504V117.104C445.504 115.112 444.688 114.176 443.104 114.176C441.208 114.176 439.96 115.568 439.96 118.136V125H437.656ZM463.165 125.264C459.757 125.264 457.669 122.84 457.669 118.88C457.669 114.8 459.877 112.208 463.381 112.208C466.789 112.208 468.877 114.632 468.877 118.592C468.877 122.672 466.669 125.264 463.165 125.264ZM463.357 123.44C465.349 123.44 466.453 121.808 466.453 118.832C466.453 115.76 465.253 114.008 463.213 114.008C461.221 114.008 460.093 115.64 460.093 118.64C460.093 121.712 461.293 123.44 463.357 123.44ZM477.225 125.24C475.569 125.24 474.273 124.448 473.457 122.84H473.265L473.169 125H471.057V107.72H473.361L473.265 114.608H473.457C474.273 113.024 475.617 112.232 477.369 112.232C480.177 112.232 482.169 114.296 482.169 118.568C482.169 122.72 480.177 125.24 477.225 125.24ZM476.625 123.44C478.761 123.44 479.697 121.592 479.697 118.832C479.697 115.904 478.665 114.032 476.553 114.032C474.393 114.032 473.313 115.928 473.313 118.712C473.313 121.568 474.465 123.44 476.625 123.44ZM484.286 110.24V107.72H486.782V110.24H484.286ZM484.382 125V112.472H486.686V125H484.382ZM489.551 125V107.72H491.855V125H489.551ZM499.496 125.264C496.016 125.264 494.048 122.936 494.048 118.832C494.048 114.824 496.184 112.208 499.688 112.208C502.928 112.208 504.968 114.416 504.512 119H496.472C496.544 121.76 497.528 123.44 499.664 123.44C501.152 123.44 502.04 122.576 502.64 121.016L504.704 121.592C503.84 123.992 502.064 125.264 499.496 125.264ZM499.568 113.96C497.792 113.96 496.808 115.304 496.544 117.416H502.208C502.232 115.04 501.2 113.96 499.568 113.96ZM514.337 125.216C512.153 125.216 510.713 123.992 510.713 121.88C510.713 119.144 512.993 117.536 517.337 117.536H518.513V116.792C518.513 114.944 517.745 114.008 516.065 114.008C514.649 114.008 513.641 114.704 513.113 116.36L511.049 115.76C511.721 113.432 513.617 112.208 516.233 112.208C519.161 112.208 520.745 113.648 520.745 116.6V122.24C520.745 123.104 521.225 123.32 522.353 122.96V124.832C521.897 125.048 521.441 125.144 520.961 125.144C519.473 125.144 518.681 124.28 518.777 122.576H518.585C517.673 124.424 516.137 125.216 514.337 125.216ZM515.129 123.44C517.049 123.44 518.537 121.832 518.537 119.624V118.976H517.121C514.721 118.976 513.089 119.888 513.089 121.616C513.089 122.792 513.881 123.44 515.129 123.44ZM523.844 130.04V112.472H525.956L526.052 114.608H526.244C527.06 113.024 528.404 112.232 530.156 112.232C532.964 112.232 534.956 114.296 534.956 118.568C534.956 122.72 532.964 125.24 530.012 125.24C528.356 125.24 527.06 124.448 526.244 122.84H526.052L526.148 130.04H523.844ZM529.412 123.44C531.548 123.44 532.484 121.592 532.484 118.832C532.484 115.904 531.452 114.032 529.34 114.032C527.18 114.032 526.1 115.928 526.1 118.712C526.1 121.568 527.252 123.44 529.412 123.44ZM537.169 130.04V112.472H539.281L539.377 114.608H539.569C540.385 113.024 541.729 112.232 543.481 112.232C546.289 112.232 548.281 114.296 548.281 118.568C548.281 122.72 546.289 125.24 543.337 125.24C541.681 125.24 540.385 124.448 539.569 122.84H539.377L539.473 130.04H537.169ZM542.737 123.44C544.873 123.44 545.809 121.592 545.809 118.832C545.809 115.904 544.777 114.032 542.665 114.032C540.505 114.032 539.425 115.928 539.425 118.712C539.425 121.568 540.577 123.44 542.737 123.44Z" fill="black"/>
<path d="M385.56 21.216C383.376 21.216 381.936 19.992 381.936 17.88C381.936 15.144 384.216 13.536 388.56 13.536H389.736V12.792C389.736 10.944 388.968 10.008 387.288 10.008C385.872 10.008 384.864 10.704 384.336 12.36L382.272 11.76C382.944 9.432 384.84 8.208 387.456 8.208C390.384 8.208 391.968 9.648 391.968 12.6V18.24C391.968 19.104 392.448 19.32 393.576 18.96V20.832C393.12 21.048 392.664 21.144 392.184 21.144C390.696 21.144 389.904 20.28 390 18.576H389.808C388.896 20.424 387.36 21.216 385.56 21.216ZM386.352 19.44C388.272 19.44 389.76 17.832 389.76 15.624V14.976H388.344C385.944 14.976 384.312 15.888 384.312 17.616C384.312 18.792 385.104 19.44 386.352 19.44ZM395.067 26.04V8.472H397.179L397.275 10.608H397.467C398.283 9.024 399.627 8.232 401.379 8.232C404.187 8.232 406.179 10.296 406.179 14.568C406.179 18.72 404.187 21.24 401.235 21.24C399.579 21.24 398.283 20.448 397.467 18.84H397.275L397.371 26.04H395.067ZM400.635 19.44C402.771 19.44 403.707 17.592 403.707 14.832C403.707 11.904 402.675 10.032 400.563 10.032C398.403 10.032 397.323 11.928 397.323 14.712C397.323 17.568 398.475 19.44 400.635 19.44ZM408.392 26.04V8.472H410.504L410.6 10.608H410.792C411.608 9.024 412.952 8.232 414.704 8.232C417.512 8.232 419.504 10.296 419.504 14.568C419.504 18.72 417.512 21.24 414.56 21.24C412.904 21.24 411.608 20.448 410.792 18.84H410.6L410.696 26.04H408.392ZM413.96 19.44C416.096 19.44 417.032 17.592 417.032 14.832C417.032 11.904 416 10.032 413.888 10.032C411.728 10.032 410.648 11.928 410.648 14.712C410.648 17.568 411.8 19.44 413.96 19.44ZM431.172 21.264C427.74 21.264 425.676 18.984 425.676 14.928C425.676 10.776 427.764 8.208 431.316 8.208C434.004 8.208 435.828 9.696 436.284 12.48L434.148 12.96C433.74 10.92 432.756 9.984 431.196 9.984C429.18 9.984 428.124 11.616 428.124 14.64C428.124 17.808 429.228 19.392 431.292 19.392C432.804 19.392 433.764 18.504 434.316 16.68L436.476 17.232C435.588 19.944 433.812 21.264 431.172 21.264ZM443.161 21.264C439.753 21.264 437.665 18.84 437.665 14.88C437.665 10.8 439.873 8.208 443.377 8.208C446.785 8.208 448.873 10.632 448.873 14.592C448.873 18.672 446.665 21.264 443.161 21.264ZM443.353 19.44C445.345 19.44 446.449 17.808 446.449 14.832C446.449 11.76 445.249 10.008 443.209 10.008C441.217 10.008 440.089 11.64 440.089 14.64C440.089 17.712 441.289 19.44 443.353 19.44ZM451.053 21V8.472H453.117L453.309 10.656H453.501C454.341 9.024 455.637 8.208 457.365 8.208C459.261 8.208 460.533 9.168 460.989 10.776H461.181C462.069 9.024 463.437 8.208 465.189 8.208C467.541 8.208 469.029 9.696 469.029 12.48V21H466.725V13.104C466.725 11.112 465.909 10.176 464.349 10.176C462.453 10.176 461.205 11.568 461.205 14.136V21H458.901V13.104C458.901 11.112 458.085 10.176 456.501 10.176C454.605 10.176 453.357 11.568 453.357 14.136V21H451.053ZM471.737 21V8.472H473.801L473.993 10.656H474.185C475.025 9.024 476.321 8.208 478.049 8.208C479.945 8.208 481.217 9.168 481.673 10.776H481.865C482.753 9.024 484.121 8.208 485.873 8.208C488.225 8.208 489.713 9.696 489.713 12.48V21H487.409V13.104C487.409 11.112 486.593 10.176 485.033 10.176C483.137 10.176 481.889 11.568 481.889 14.136V21H479.585V13.104C479.585 11.112 478.769 10.176 477.185 10.176C475.289 10.176 474.041 11.568 474.041 14.136V21H471.737ZM496.19 21.264C493.718 21.264 492.278 19.704 492.278 16.92V8.472H494.582V16.248C494.582 18.24 495.374 19.296 497.03 19.296C498.998 19.296 500.27 17.808 500.27 15.432V8.472H502.574V21H500.51L500.294 18.816L500.102 18.792C499.262 20.448 497.942 21.264 496.19 21.264ZM505.396 21V8.472H507.46L507.652 10.68H507.844C508.684 9.024 510.004 8.208 511.78 8.208C514.276 8.208 515.788 9.768 515.788 12.552V21H513.484V13.248C513.484 11.232 512.644 10.176 510.964 10.176C508.972 10.176 507.7 11.664 507.7 14.04V21H505.396ZM518.414 6.24V3.72H520.91V6.24H518.414ZM518.51 21V8.472H520.814V21H518.51ZM528.503 21.264C525.071 21.264 523.007 18.984 523.007 14.928C523.007 10.776 525.095 8.208 528.647 8.208C531.335 8.208 533.159 9.696 533.615 12.48L531.479 12.96C531.071 10.92 530.087 9.984 528.527 9.984C526.511 9.984 525.455 11.616 525.455 14.64C525.455 17.808 526.559 19.392 528.623 19.392C530.135 19.392 531.095 18.504 531.647 16.68L533.807 17.232C532.919 19.944 531.143 21.264 528.503 21.264ZM538.572 21.216C536.388 21.216 534.948 19.992 534.948 17.88C534.948 15.144 537.228 13.536 541.572 13.536H542.748V12.792C542.748 10.944 541.98 10.008 540.3 10.008C538.884 10.008 537.876 10.704 537.348 12.36L535.284 11.76C535.956 9.432 537.852 8.208 540.468 8.208C543.396 8.208 544.98 9.648 544.98 12.6V18.24C544.98 19.104 545.46 19.32 546.588 18.96V20.832C546.132 21.048 545.676 21.144 545.196 21.144C543.708 21.144 542.916 20.28 543.012 18.576H542.82C541.908 20.424 540.372 21.216 538.572 21.216ZM539.364 19.44C541.284 19.44 542.772 17.832 542.772 15.624V14.976H541.356C538.956 14.976 537.324 15.888 537.324 17.616C537.324 18.792 538.116 19.44 539.364 19.44ZM551.275 21.24C549.355 21.24 548.419 20.256 548.419 18.12V10.272H546.523V8.472H548.443L548.587 5.16H550.651V8.472H553.651V10.272H550.651V17.712C550.651 18.768 550.987 19.2 551.827 19.2C552.259 19.2 552.811 19.104 553.507 18.864V20.76C552.883 21.048 552.115 21.24 551.275 21.24ZM555.238 6.24V3.72H557.734V6.24H555.238ZM555.334 21V8.472H557.638V21H555.334ZM565.328 21.264C561.92 21.264 559.832 18.84 559.832 14.88C559.832 10.8 562.04 8.208 565.544 8.208C568.952 8.208 571.04 10.632 571.04 14.592C571.04 18.672 568.832 21.264 565.328 21.264ZM565.52 19.44C567.512 19.44 568.616 17.808 568.616 14.832C568.616 11.76 567.416 10.008 565.376 10.008C563.384 10.008 562.256 11.64 562.256 14.64C562.256 17.712 563.456 19.44 565.52 19.44ZM573.219 21V8.472H575.283L575.475 10.68H575.667C576.507 9.024 577.827 8.208 579.603 8.208C582.099 8.208 583.611 9.768 583.611 12.552V21H581.307V13.248C581.307 11.232 580.467 10.176 578.787 10.176C576.795 10.176 575.523 11.664 575.523 14.04V21H573.219Z" fill="black"/>
<path d="M1.656 31.04V13.472H3.768L3.864 15.608H4.056C4.872 14.024 6.216 13.232 7.968 13.232C10.776 13.232 12.768 15.296 12.768 19.568C12.768 23.72 10.776 26.24 7.824 26.24C6.168 26.24 4.872 25.448 4.056 23.84H3.864L3.96 31.04H1.656ZM7.224 24.44C9.36 24.44 10.296 22.592 10.296 19.832C10.296 16.904 9.264 15.032 7.152 15.032C4.992 15.032 3.912 16.928 3.912 19.712C3.912 22.568 5.064 24.44 7.224 24.44ZM18.7492 26.264C16.2772 26.264 14.8372 24.704 14.8372 21.92V13.472H17.1412V21.248C17.1412 23.24 17.9332 24.296 19.5892 24.296C21.5573 24.296 22.8293 22.808 22.8293 20.432V13.472H25.1332V26H23.0693L22.8533 23.816L22.6613 23.792C21.8212 25.448 20.5013 26.264 18.7492 26.264ZM34.1229 26.24C32.4669 26.24 31.1709 25.448 30.3549 23.84H30.1629L30.0669 26H27.9549V8.72H30.2589L30.1629 15.608H30.3549C31.1709 14.024 32.5149 13.232 34.2669 13.232C37.0749 13.232 39.0669 15.296 39.0669 19.568C39.0669 23.72 37.0749 26.24 34.1229 26.24ZM33.5229 24.44C35.6589 24.44 36.5949 22.592 36.5949 19.832C36.5949 16.904 35.5629 15.032 33.4509 15.032C31.2909 15.032 30.2109 16.928 30.2109 19.712C30.2109 22.568 31.3629 24.44 33.5229 24.44ZM41.2802 26V8.72H43.5842V26H41.2802ZM46.3532 11.24V8.72H48.8492V11.24H46.3532ZM46.4492 26V13.472H48.7532V26H46.4492ZM56.4422 26.264C53.0102 26.264 50.9462 23.984 50.9462 19.928C50.9462 15.776 53.0342 13.208 56.5862 13.208C59.2742 13.208 61.0982 14.696 61.5542 17.48L59.4182 17.96C59.0102 15.92 58.0262 14.984 56.4662 14.984C54.4502 14.984 53.3942 16.616 53.3942 19.64C53.3942 22.808 54.4982 24.392 56.5622 24.392C58.0742 24.392 59.0342 23.504 59.5862 21.68L61.7462 22.232C60.8582 24.944 59.0822 26.264 56.4422 26.264ZM68.1414 11.24V8.72H70.6374V11.24H68.1414ZM68.2374 26V13.472H70.5414V26H68.2374ZM73.4064 26V13.472H75.4704L75.6624 15.68H75.8544C76.6944 14.024 78.0144 13.208 79.7904 13.208C82.2864 13.208 83.7984 14.768 83.7984 17.552V26H81.4944V18.248C81.4944 16.232 80.6544 15.176 78.9744 15.176C76.9824 15.176 75.7104 16.664 75.7104 19.04V26H73.4064ZM89.7396 26.24C87.8196 26.24 86.8836 25.256 86.8836 23.12V15.272H84.9876V13.472H86.9076L87.0516 10.16H89.1156V13.472H92.1156V15.272H89.1156V22.712C89.1156 23.768 89.4516 24.2 90.2916 24.2C90.7236 24.2 91.2756 24.104 91.9716 23.864V25.76C91.3476 26.048 90.5796 26.24 89.7396 26.24ZM98.3642 26.264C94.8842 26.264 92.9162 23.936 92.9162 19.832C92.9162 15.824 95.0522 13.208 98.5562 13.208C101.796 13.208 103.836 15.416 103.38 20H95.3402C95.4122 22.76 96.3962 24.44 98.5322 24.44C100.02 24.44 100.908 23.576 101.508 22.016L103.572 22.592C102.708 24.992 100.932 26.264 98.3642 26.264ZM98.4362 14.96C96.6602 14.96 95.6762 16.304 95.4122 18.416H101.076C101.1 16.04 100.068 14.96 98.4362 14.96ZM105.671 26V13.472H107.687L107.903 15.68H108.095C108.719 14.048 109.823 13.28 111.191 13.28C111.551 13.28 111.863 13.328 112.175 13.4V15.68C111.647 15.584 111.167 15.536 110.783 15.536C108.911 15.536 107.975 16.784 107.975 19.232V26H105.671ZM115.947 26.216C113.763 26.216 112.323 24.992 112.323 22.88C112.323 20.144 114.603 18.536 118.947 18.536H120.123V17.792C120.123 15.944 119.355 15.008 117.675 15.008C116.259 15.008 115.251 15.704 114.723 17.36L112.659 16.76C113.331 14.432 115.227 13.208 117.843 13.208C120.771 13.208 122.355 14.648 122.355 17.6V23.24C122.355 24.104 122.835 24.32 123.963 23.96V25.832C123.507 26.048 123.051 26.144 122.571 26.144C121.083 26.144 120.291 25.28 120.387 23.576H120.195C119.283 25.424 117.747 26.216 115.947 26.216ZM116.739 24.44C118.659 24.44 120.147 22.832 120.147 20.624V19.976H118.731C116.331 19.976 114.699 20.888 114.699 22.616C114.699 23.792 115.491 24.44 116.739 24.44ZM130.161 26.264C126.729 26.264 124.665 23.984 124.665 19.928C124.665 15.776 126.753 13.208 130.305 13.208C132.993 13.208 134.817 14.696 135.273 17.48L133.137 17.96C132.729 15.92 131.745 14.984 130.185 14.984C128.169 14.984 127.113 16.616 127.113 19.64C127.113 22.808 128.217 24.392 130.281 24.392C131.793 24.392 132.753 23.504 133.305 21.68L135.465 22.232C134.577 24.944 132.801 26.264 130.161 26.264ZM140.663 26.24C138.743 26.24 137.807 25.256 137.807 23.12V15.272H135.911V13.472H137.831L137.975 10.16H140.039V13.472H143.039V15.272H140.039V22.712C140.039 23.768 140.375 24.2 141.215 24.2C141.647 24.2 142.199 24.104 142.895 23.864V25.76C142.271 26.048 141.503 26.24 140.663 26.24ZM144.626 11.24V8.72H147.122V11.24H144.626ZM144.722 26V13.472H147.026V26H144.722ZM154.715 26.264C151.307 26.264 149.219 23.84 149.219 19.88C149.219 15.8 151.427 13.208 154.931 13.208C158.339 13.208 160.427 15.632 160.427 19.592C160.427 23.672 158.219 26.264 154.715 26.264ZM154.907 24.44C156.899 24.44 158.003 22.808 158.003 19.832C158.003 16.76 156.803 15.008 154.763 15.008C152.771 15.008 151.643 16.64 151.643 19.64C151.643 22.712 152.843 24.44 154.907 24.44ZM162.607 26V13.472H164.671L164.863 15.68H165.055C165.895 14.024 167.215 13.208 168.991 13.208C171.487 13.208 172.999 14.768 172.999 17.552V26H170.695V18.248C170.695 16.232 169.855 15.176 168.175 15.176C166.183 15.176 164.911 16.664 164.911 19.04V26H162.607Z" fill="black"/>
<path d="M613.48 104.264C610.048 104.264 607.984 101.984 607.984 97.928C607.984 93.776 610.072 91.208 613.624 91.208C616.312 91.208 618.136 92.696 618.592 95.48L616.456 95.96C616.048 93.92 615.064 92.984 613.504 92.984C611.488 92.984 610.432 94.616 610.432 97.64C610.432 100.808 611.536 102.392 613.6 102.392C615.112 102.392 616.072 101.504 616.624 99.68L618.784 100.232C617.896 102.944 616.12 104.264 613.48 104.264ZM620.549 89.24V86.72H623.045V89.24H620.549ZM620.645 104V91.472H622.949V104H620.645ZM629.15 104.24C627.23 104.24 626.294 103.256 626.294 101.12V93.272H624.398V91.472H626.318L626.462 88.16H628.526V91.472H631.526V93.272H628.526V100.712C628.526 101.768 628.862 102.2 629.702 102.2C630.134 102.2 630.686 102.104 631.382 101.864V103.76C630.758 104.048 629.99 104.24 629.15 104.24ZM633.837 109.28C633.189 109.28 632.493 109.16 631.797 108.92V106.88C632.613 107.144 633.261 107.24 633.765 107.24C634.797 107.24 635.397 106.784 635.829 105.728L636.309 104.552L631.557 91.472H634.077L636.813 99.488L637.341 101.36H637.533L638.037 99.488L640.437 91.472H642.837L638.085 105.416C637.173 108.152 635.805 109.28 633.837 109.28ZM647.501 93.272V91.472H649.397V90.224C649.397 87.704 650.573 86.48 652.973 86.48C653.741 86.48 654.533 86.6 655.229 86.84V88.784C654.389 88.544 653.813 88.424 653.237 88.424C652.109 88.424 651.701 88.904 651.701 90.2V91.472H654.917V93.272H651.701V104H649.397V93.272H647.501ZM656.17 104V86.72H658.474V104H656.17ZM666.163 104.264C662.755 104.264 660.667 101.84 660.667 97.88C660.667 93.8 662.875 91.208 666.379 91.208C669.787 91.208 671.875 93.632 671.875 97.592C671.875 101.672 669.667 104.264 666.163 104.264ZM666.355 102.44C668.347 102.44 669.451 100.808 669.451 97.832C669.451 94.76 668.251 93.008 666.211 93.008C664.219 93.008 663.091 94.64 663.091 97.64C663.091 100.712 664.291 102.44 666.355 102.44ZM675.954 104L672.666 91.472H675.138L677.37 101.576H677.562L680.082 91.472H682.458L684.93 101.528H685.122L687.378 91.472H689.706L686.322 104H683.634L681.234 94.376H681.042L678.642 104H675.954ZM695.953 104.264C692.473 104.264 690.505 101.936 690.505 97.832C690.505 93.824 692.641 91.208 696.145 91.208C699.385 91.208 701.425 93.416 700.969 98H692.929C693.001 100.76 693.985 102.44 696.121 102.44C697.609 102.44 698.497 101.576 699.097 100.016L701.161 100.592C700.297 102.992 698.521 104.264 695.953 104.264ZM696.025 92.96C694.249 92.96 693.265 94.304 693.001 96.416H698.665C698.689 94.04 697.657 92.96 696.025 92.96ZM703.26 104V91.472H705.276L705.492 93.68H705.684C706.308 92.048 707.412 91.28 708.78 91.28C709.14 91.28 709.452 91.328 709.764 91.4V93.68C709.236 93.584 708.756 93.536 708.372 93.536C706.5 93.536 705.564 94.784 705.564 97.232V104H703.26ZM715.185 104.264C712.425 104.264 710.577 103.016 710.001 100.664L712.113 100.088C712.569 101.744 713.673 102.488 715.281 102.488C716.793 102.488 717.705 101.744 717.705 100.616C717.705 99.728 717.129 99.2 715.737 98.768L713.697 98.144C711.585 97.472 710.649 96.464 710.649 94.784C710.649 92.576 712.353 91.208 715.089 91.208C717.513 91.208 719.145 92.36 719.745 94.424L717.729 94.904C717.297 93.584 716.361 92.912 714.993 92.912C713.673 92.912 712.809 93.584 712.809 94.568C712.809 95.312 713.313 95.768 714.369 96.08L716.625 96.776C719.001 97.496 720.009 98.528 720.009 100.328C720.009 102.752 718.185 104.264 715.185 104.264ZM730.168 107.6C727.96 104.384 726.904 101.096 726.904 97.328C726.904 93.368 728.08 89.816 730.36 86.72H732.352C730.24 90.344 729.352 93.392 729.352 97.16C729.352 100.88 730.24 103.928 732.352 107.6H730.168ZM734.577 104V91.472H736.641L736.833 93.656H737.025C737.865 92.024 739.161 91.208 740.889 91.208C742.785 91.208 744.057 92.168 744.513 93.776H744.705C745.593 92.024 746.961 91.208 748.713 91.208C751.065 91.208 752.553 92.696 752.553 95.48V104H750.249V96.104C750.249 94.112 749.433 93.176 747.873 93.176C745.977 93.176 744.729 94.568 744.729 97.136V104H742.425V96.104C742.425 94.112 741.609 93.176 740.025 93.176C738.129 93.176 736.881 94.568 736.881 97.136V104H734.577ZM758.165 104.216C755.981 104.216 754.541 102.992 754.541 100.88C754.541 98.144 756.821 96.536 761.165 96.536H762.341V95.792C762.341 93.944 761.573 93.008 759.893 93.008C758.477 93.008 757.469 93.704 756.941 95.36L754.877 94.76C755.549 92.432 757.445 91.208 760.061 91.208C762.989 91.208 764.573 92.648 764.573 95.6V101.24C764.573 102.104 765.053 102.32 766.181 101.96V103.832C765.725 104.048 765.269 104.144 764.789 104.144C763.301 104.144 762.509 103.28 762.605 101.576H762.413C761.501 103.424 759.965 104.216 758.165 104.216ZM758.957 102.44C760.877 102.44 762.365 100.832 762.365 98.624V97.976H760.949C758.549 97.976 756.917 98.888 756.917 100.616C756.917 101.792 757.709 102.44 758.957 102.44ZM767.576 89.24V86.72H770.072V89.24H767.576ZM767.672 104V91.472H769.976V104H767.672ZM772.842 104V91.472H774.906L775.098 93.68H775.29C776.13 92.024 777.45 91.208 779.226 91.208C781.722 91.208 783.234 92.768 783.234 95.552V104H780.93V96.248C780.93 94.232 780.09 93.176 778.41 93.176C776.418 93.176 775.146 94.664 775.146 97.04V104H772.842ZM789.175 104.24C787.255 104.24 786.319 103.256 786.319 101.12V93.272H784.423V91.472H786.343L786.487 88.16H788.551V91.472H791.551V93.272H788.551V100.712C788.551 101.768 788.887 102.2 789.727 102.2C790.159 102.2 790.711 102.104 791.407 101.864V103.76C790.783 104.048 790.015 104.24 789.175 104.24ZM797.799 104.264C794.319 104.264 792.351 101.936 792.351 97.832C792.351 93.824 794.487 91.208 797.991 91.208C801.231 91.208 803.271 93.416 802.815 98H794.775C794.847 100.76 795.831 102.44 797.967 102.44C799.455 102.44 800.343 101.576 800.943 100.016L803.007 100.592C802.143 102.992 800.367 104.264 797.799 104.264ZM797.871 92.96C796.095 92.96 795.111 94.304 794.847 96.416H800.511C800.535 94.04 799.503 92.96 797.871 92.96ZM805.106 104V91.472H807.17L807.362 93.68H807.554C808.394 92.024 809.714 91.208 811.49 91.208C813.986 91.208 815.498 92.768 815.498 95.552V104H813.194V96.248C813.194 94.232 812.354 93.176 810.674 93.176C808.682 93.176 807.41 94.664 807.41 97.04V104H805.106ZM821.125 104.216C818.941 104.216 817.501 102.992 817.501 100.88C817.501 98.144 819.781 96.536 824.125 96.536H825.301V95.792C825.301 93.944 824.533 93.008 822.853 93.008C821.437 93.008 820.429 93.704 819.901 95.36L817.837 94.76C818.509 92.432 820.405 91.208 823.021 91.208C825.949 91.208 827.533 92.648 827.533 95.6V101.24C827.533 102.104 828.013 102.32 829.141 101.96V103.832C828.685 104.048 828.229 104.144 827.749 104.144C826.261 104.144 825.469 103.28 825.565 101.576H825.373C824.461 103.424 822.925 104.216 821.125 104.216ZM821.917 102.44C823.837 102.44 825.325 100.832 825.325 98.624V97.976H823.909C821.509 97.976 819.877 98.888 819.877 100.616C819.877 101.792 820.669 102.44 821.917 102.44ZM830.632 104V91.472H832.696L832.888 93.68H833.08C833.92 92.024 835.24 91.208 837.016 91.208C839.512 91.208 841.024 92.768 841.024 95.552V104H838.72V96.248C838.72 94.232 837.88 93.176 836.2 93.176C834.208 93.176 832.936 94.664 832.936 97.04V104H830.632ZM848.57 104.264C845.138 104.264 843.074 101.984 843.074 97.928C843.074 93.776 845.162 91.208 848.714 91.208C851.402 91.208 853.226 92.696 853.682 95.48L851.546 95.96C851.138 93.92 850.154 92.984 848.594 92.984C846.578 92.984 845.522 94.616 845.522 97.64C845.522 100.808 846.626 102.392 848.69 102.392C850.202 102.392 851.162 101.504 851.714 99.68L853.874 100.232C852.986 102.944 851.21 104.264 848.57 104.264ZM860.511 104.264C857.031 104.264 855.063 101.936 855.063 97.832C855.063 93.824 857.199 91.208 860.703 91.208C863.943 91.208 865.983 93.416 865.527 98H857.487C857.559 100.76 858.543 102.44 860.679 102.44C862.167 102.44 863.055 101.576 863.655 100.016L865.719 100.592C864.855 102.992 863.079 104.264 860.511 104.264ZM860.583 92.96C858.807 92.96 857.823 94.304 857.559 96.416H863.223C863.247 94.04 862.215 92.96 860.583 92.96ZM866.33 107.12L873.362 87.392H875.666L868.634 107.12H866.33ZM608.656 138.04V120.472H610.768L610.864 122.608H611.056C611.872 121.024 613.216 120.232 614.968 120.232C617.776 120.232 619.768 122.296 619.768 126.568C619.768 130.72 617.776 133.24 614.824 133.24C613.168 133.24 611.872 132.448 611.056 130.84H610.864L610.96 138.04H608.656ZM614.224 131.44C616.36 131.44 617.296 129.592 617.296 126.832C617.296 123.904 616.264 122.032 614.152 122.032C611.992 122.032 610.912 123.928 610.912 126.712C610.912 129.568 612.064 131.44 614.224 131.44ZM621.981 133V115.72H624.285V133H621.981ZM630.054 133.216C627.87 133.216 626.43 131.992 626.43 129.88C626.43 127.144 628.71 125.536 633.054 125.536H634.23V124.792C634.23 122.944 633.462 122.008 631.782 122.008C630.366 122.008 629.358 122.704 628.83 124.36L626.766 123.76C627.438 121.432 629.334 120.208 631.95 120.208C634.878 120.208 636.462 121.648 636.462 124.6V130.24C636.462 131.104 636.942 131.32 638.07 130.96V132.832C637.614 133.048 637.158 133.144 636.678 133.144C635.19 133.144 634.398 132.28 634.494 130.576H634.302C633.39 132.424 631.854 133.216 630.054 133.216ZM630.846 131.44C632.766 131.44 634.254 129.832 634.254 127.624V126.976H632.838C630.438 126.976 628.806 127.888 628.806 129.616C628.806 130.792 629.598 131.44 630.846 131.44ZM644.268 133.264C640.836 133.264 638.772 130.984 638.772 126.928C638.772 122.776 640.86 120.208 644.412 120.208C647.1 120.208 648.924 121.696 649.38 124.48L647.244 124.96C646.836 122.92 645.852 121.984 644.292 121.984C642.276 121.984 641.22 123.616 641.22 126.64C641.22 129.808 642.324 131.392 644.388 131.392C645.9 131.392 646.86 130.504 647.412 128.68L649.572 129.232C648.684 131.944 646.908 133.264 644.268 133.264ZM656.21 133.264C652.73 133.264 650.762 130.936 650.762 126.832C650.762 122.824 652.898 120.208 656.402 120.208C659.642 120.208 661.682 122.416 661.226 127H653.186C653.258 129.76 654.242 131.44 656.378 131.44C657.866 131.44 658.754 130.576 659.354 129.016L661.418 129.592C660.554 131.992 658.778 133.264 656.21 133.264ZM656.282 121.96C654.506 121.96 653.522 123.304 653.258 125.416H658.922C658.946 123.04 657.914 121.96 656.282 121.96ZM663.517 133V120.472H665.581L665.773 122.656H665.965C666.805 121.024 668.101 120.208 669.829 120.208C671.725 120.208 672.997 121.168 673.453 122.776H673.645C674.533 121.024 675.901 120.208 677.653 120.208C680.005 120.208 681.493 121.696 681.493 124.48V133H679.189V125.104C679.189 123.112 678.373 122.176 676.813 122.176C674.917 122.176 673.669 123.568 673.669 126.136V133H671.365V125.104C671.365 123.112 670.549 122.176 668.965 122.176C667.069 122.176 665.821 123.568 665.821 126.136V133H663.517ZM688.977 133.264C685.497 133.264 683.529 130.936 683.529 126.832C683.529 122.824 685.665 120.208 689.169 120.208C692.409 120.208 694.449 122.416 693.993 127H685.953C686.025 129.76 687.009 131.44 689.145 131.44C690.633 131.44 691.521 130.576 692.121 129.016L694.185 129.592C693.321 131.992 691.545 133.264 688.977 133.264ZM689.049 121.96C687.273 121.96 686.289 123.304 686.025 125.416H691.689C691.713 123.04 690.681 121.96 689.049 121.96ZM696.284 133V120.472H698.348L698.54 122.68H698.732C699.572 121.024 700.892 120.208 702.668 120.208C705.164 120.208 706.676 121.768 706.676 124.552V133H704.372V125.248C704.372 123.232 703.532 122.176 701.852 122.176C699.86 122.176 698.588 123.664 698.588 126.04V133H696.284ZM712.617 133.24C710.697 133.24 709.761 132.256 709.761 130.12V122.272H707.865V120.472H709.785L709.929 117.16H711.993V120.472H714.993V122.272H711.993V129.712C711.993 130.768 712.329 131.2 713.169 131.2C713.601 131.2 714.153 131.104 714.849 130.864V132.76C714.225 133.048 713.457 133.24 712.617 133.24ZM716.053 136.6C718.189 132.976 719.053 129.928 719.053 126.16C719.053 122.44 718.165 119.392 716.053 115.72H718.237C720.445 118.936 721.501 122.224 721.501 125.992C721.501 129.928 720.325 133.504 718.045 136.6H716.053Z" fill="black"/>
<line x1="487.985" y1="167.723" x2="375.985" y2="101.723" stroke="#D6FA00" stroke-width="4"/>
<line x1="270.539" y1="220.912" x2="211.891" y2="104.893" stroke="#D6FA00" stroke-width="4"/>
<circle cx="361.692" cy="79.6917" r="40.5" transform="rotate(53.1885 361.692 79.6917)" fill="#343437"/>
<circle cx="200.692" cy="84.6917" r="40.5" transform="rotate(53.1885 200.692 84.6917)" fill="#343437"/>
<line x1="344.826" y1="716.329" x2="258.415" y2="813.454" stroke="#D6FA00" stroke-width="4"/>
<circle cx="243.731" cy="831.284" r="40.5" transform="rotate(-58.3354 243.731 831.284)" fill="#343437"/>
<line x1="598.64" y1="583.105" x2="672.64" y2="608.105" stroke="#122D8B" stroke-width="4"/>
<circle cx="693.731" cy="614.732" r="40.5" transform="rotate(-58.3354 693.731 614.732)" fill="#FA676F"/>
<path d="M826.293 666.707C826.683 667.098 827.317 667.098 827.707 666.707L834.071 660.343C834.462 659.953 834.462 659.319 834.071 658.929C833.681 658.538 833.047 658.538 832.657 658.929L827 664.586L821.343 658.929C820.953 658.538 820.319 658.538 819.929 658.929C819.538 659.319 819.538 659.953 819.929 660.343L826.293 666.707ZM826 642L826 666L828 666L828 642L826 642Z" fill="black"/>
</svg>
