<svg width="57" height="57" viewBox="0 0 57 57" fill="none" xmlns="http://www.w3.org/2000/svg">
<path fill-rule="evenodd" clip-rule="evenodd" d="M57 28.5C57 44.2401 44.2401 57 28.5 57C12.7599 57 0 44.2401 0 28.5C0 23.0705 1.51826 17.9957 4.1534 13.6768C4.49529 13.1164 5.2786 13.0675 5.71058 13.5617L20.3874 30.3541C21.0855 31.1527 22.383 30.4581 22.1056 29.4344L15.2494 4.1385C15.1277 3.68946 15.3309 3.2141 15.7469 3.00563C19.584 1.08242 23.9156 0 28.5 0C44.2401 0 57 12.7599 57 28.5ZM33 39.5C33 43.0898 30.0898 46 26.5 46C22.9101 46 20 43.0898 20 39.5C20 35.9101 22.9101 33 26.5 33C30.0898 33 33 35.9101 33 39.5ZM37.7536 10.1946C37.9537 9.58348 38.6703 9.31737 39.2208 9.64979L46.3512 13.9555C46.9017 14.2879 46.9999 15.046 46.5522 15.5077L33.658 28.804C32.9196 29.5655 31.6597 28.8047 31.9898 27.7967L37.7536 10.1946ZM50.8822 38.5773C51.5252 38.5862 52.0094 37.9946 51.8735 37.366L50.935 33.026C50.7991 32.3974 50.1138 32.0587 49.5319 32.3324L40.5976 36.5359C39.6378 36.9874 39.9489 38.4259 41.0094 38.4406L50.8822 38.5773Z" fill="#F57939"/>
</svg>
